<svg width="27" height="25" viewBox="0 0 27 25" fill="none" xmlns="http://www.w3.org/2000/svg">
<path d="M15.9488 0.971875C16.1118 0.892198 16.294 0.859941 16.4746 0.878782C16.6551 0.897623 16.8267 0.966803 16.9698 1.07844L25.6886 7.85969C25.801 7.94699 25.8927 8.05798 25.9574 8.18477C26.022 8.31157 26.0579 8.45104 26.0625 8.59328C26.0672 8.73553 26.0404 8.87704 25.9841 9.00776C25.9279 9.13849 25.8435 9.25521 25.737 9.34962L17.0183 17.0996C16.8786 17.2236 16.7061 17.3046 16.5215 17.3329C16.337 17.3611 16.1481 17.3354 15.9778 17.2588C15.8075 17.1823 15.6629 17.0581 15.5615 16.9013C15.4601 16.7445 15.4062 16.5617 15.4063 16.375V12.6085C14.949 12.686 14.3523 12.8216 13.6547 13.0541C11.9633 13.6199 9.67513 14.7572 7.37338 17.0609C7.23254 17.2022 7.05148 17.2967 6.85495 17.3313C6.65842 17.3658 6.456 17.3389 6.27537 17.2541C6.09473 17.1693 5.94469 17.0308 5.84576 16.8575C5.74682 16.6842 5.70382 16.4845 5.72263 16.2859C5.99969 13.2421 6.88706 11.0217 8.09413 9.42131C9.13014 8.03999 10.5381 6.98221 12.1532 6.37169C13.1949 5.97686 14.2932 5.75183 15.4063 5.70519V1.84375C15.4059 1.66219 15.4566 1.48418 15.5525 1.33002C15.6484 1.17586 15.7857 1.05176 15.9488 0.971875ZM0.875 7.65625C0.875 6.37161 1.38532 5.13958 2.2937 4.2312C3.20208 3.32282 4.43411 2.8125 5.71875 2.8125H9.59375C9.85068 2.8125 10.0971 2.91456 10.2788 3.09624C10.4604 3.27792 10.5625 3.52432 10.5625 3.78125C10.5625 4.03818 10.4604 4.28458 10.2788 4.46626C10.0971 4.64793 9.85068 4.75 9.59375 4.75H5.71875C4.94796 4.75 4.20875 5.05619 3.66372 5.60122C3.11869 6.14625 2.8125 6.88546 2.8125 7.65625V19.2812C2.8125 20.052 3.11869 20.7913 3.66372 21.3363C4.20875 21.8813 4.94796 22.1875 5.71875 22.1875H17.3438C18.1145 22.1875 18.8538 21.8813 19.3988 21.3363C19.9438 20.7913 20.25 20.052 20.25 19.2812V17.3437C20.25 17.0868 20.3521 16.8404 20.5337 16.6587C20.7154 16.4771 20.9618 16.375 21.2188 16.375C21.4757 16.375 21.7221 16.4771 21.9038 16.6587C22.0854 16.8404 22.1875 17.0868 22.1875 17.3437V19.2812C22.1875 20.5659 21.6772 21.7979 20.7688 22.7063C19.8604 23.6147 18.6284 24.125 17.3438 24.125H5.71875C4.43411 24.125 3.20208 23.6147 2.2937 22.7063C1.38532 21.7979 0.875 20.5659 0.875 19.2812V7.65625Z" fill="#FFE6EB"/>
</svg>
